<svg xmlns="http://www.w3.org/2000/svg" viewBox="0 0 180 110"><defs><linearGradient id="a" x2="0" y2="1"><stop stop-color="#fffdf2"/><stop offset="1" stop-color="#d7e5df"/></linearGradient></defs><path d="M17 59c2-8 12-12 25-11l33 2 31-34c7-8 17-10 23-5l-13 42 40 6c15 2 19 12 6 19l-47 10-14 18-12-1 6-17-46-4-19 13-10-2 12-16-18-7c-6-3-5-10 2-13z" fill="url(#a)" stroke="#0b4d65" stroke-width="4" stroke-linejoin="round"/><path d="M54 52l18 31M111 54l-6 32" stroke="#e45b3d" stroke-width="5"/><circle cx="129" cy="67" r="4" fill="#e9a925"/></svg>
